/* XPM */
static char *poop1716932824[] = {
/* columns rows colors chars-per-pixel */
"64 64 168 2 ",
"   c None",
".  c black",
"X  c #010000",
"o  c #010100",
"O  c #010101",
"+  c #020101",
"@  c #020201",
"#  c #030202",
"$  c #040302",
"%  c #050403",
"&  c #060403",
"*  c #060504",
"=  c #070504",
"-  c #080504",
";  c #080605",
":  c #090605",
">  c #0A0705",
",  c #0A0706",
"<  c #0B0807",
"1  c #0C0907",
"2  c #0F0B09",
"3  c #150F0C",
"4  c #17110E",
"5  c #18110E",
"6  c #1A110E",
"7  c #19120F",
"8  c #1A130F",
"9  c #1C120F",
"0  c #1C1411",
"q  c #1F1612",
"w  c #201713",
"e  c #221914",
"r  c #231915",
"t  c #251914",
"y  c #261914",
"u  c #241A15",
"i  c #251B16",
"p  c #261B16",
"a  c #271C17",
"s  c #261B1B",
"d  c #2B1F19",
"f  c #2D1E18",
"g  c #34241D",
"h  c #34251F",
"j  c #36251E",
"k  c #38251E",
"l  c #38261E",
"z  c #2E2121",
"x  c #372821",
"c  c #3A2A23",
"v  c #3F2D25",
"b  c #402E26",
"n  c #423027",
"m  c #443128",
"M  c #453229",
"N  c #4B3228",
"B  c #49352B",
"V  c #4C372D",
"C  c #4D382E",
"Z  c #583B2F",
"A  c #513A30",
"S  c #543D32",
"D  c #5D3F31",
"F  c #5E3F32",
"G  c #5E4438",
"H  c #604033",
"J  c #614134",
"K  c #644335",
"L  c #684537",
"P  c #604539",
"I  c #63473B",
"U  c #654638",
"Y  c #664A3D",
"T  c #684A3B",
"R  c #754E3E",
"E  c #6B4D40",
"W  c #765546",
"Q  c #785040",
"!  c #785747",
"~  c #7A5848",
"^  c #815644",
"/  c #815745",
"(  c #835845",
")  c #845846",
"_  c #805B49",
"`  c #80584A",
"'  c #805C4C",
"]  c #835F4E",
"[  c #855C4D",
"{  c #885B48",
"}  c #895C49",
"|  c #8A5C49",
" . c #85604F",
".. c #91614D",
"X. c #93624E",
"o. c #896351",
"O. c #8B6453",
"+. c #986651",
"@. c #906856",
"#. c #936A57",
"$. c #946B58",
"%. c #9B705C",
"&. c #9C715D",
"*. c #9D715D",
"=. c #A06B55",
"-. c #A36D56",
";. c #A77059",
":. c #A97159",
">. c #AF755D",
",. c #B0765E",
"<. c #B1775E",
"1. c #B2775E",
"2. c #A27560",
"3. c #A37661",
"4. c #A47661",
"5. c #A57762",
"6. c #A67862",
"7. c #A97A64",
"8. c #AC7C66",
"9. c #AD7D67",
"0. c #AE7E67",
"q. c #B47960",
"w. c #B67D65",
"e. c #B87B62",
"r. c #B97C62",
"t. c #BB7D63",
"y. c #BC7E64",
"u. c #BA866E",
"i. c #BB876F",
"p. c #C68569",
"a. c #C8866A",
"s. c #C18B73",
"d. c #C28C73",
"f. c #C38D74",
"g. c #C68F76",
"h. c #CE8E72",
"j. c #D08F74",
"k. c #C79076",
"l. c #C99177",
"z. c #CC9379",
"x. c #CE957A",
"c. c #D39578",
"v. c #D0967B",
"b. c #D5937C",
"n. c #D5947D",
"m. c #D6987B",
"M. c #D2987D",
"N. c #D3987D",
"B. c #D69A7F",
"V. c #D79B7F",
"C. c #D89483",
"Z. c #D89584",
"A. c #D99584",
"S. c #D89C80",
"D. c #DB9E82",
"F. c #DC988B",
"G. c #DE988C",
"H. c #DF9A8D",
"J. c #E49E96",
"K. c #E6A19A",
"L. c #E7A19B",
"P. c #E7A19C",
"I. c #E8A29E",
"U. c #E6A4AC",
"Y. c #F3ACAD",
"T. c #F3ACAE",
"R. c #ECA8B0",
"E. c LightPink",
/* pixels */
"                                                                                                                                ",
"                                                                                                                                ",
"                                                                                                                                ",
"                                                                                                                                ",
"                                                                                                                                ",
"                                                                                                                                ",
"                                                                                                                                ",
"                                                                                                                                ",
"                                                                                                                                ",
"                                                . . . . .                                                                       ",
"                                            . . . x ' j . .                                                                     ",
"                                          . . 7 #.S.D.l.1 .                                                                     ",
"                                        . . x x.S.D.D.D.@.+ . . . . . . . . . .                                                 ",
"                                      . . v M.D.D.D.D.D.V.u.S w 0 u b B m d $ . . .                                             ",
"                                      . 0 x.D.D.D.D.D.D.D.D.D.D.S.D.D.D.S.D.x. .w . .                                           ",
"                                    . . 4.S.D.D.D.D.D.D.D.D.D.D.D.D.D.D.D.D.S.D.S.E . .                                         ",
"                                    . d S.D.D.D.D.D.D.D.D.D.D.D.D.D.D.D.D.D.D.D.D.D.O.. .                                       ",
"                                    . ~ D.D.D.D.D.D.D.D.D.D.D.V.D.D.D.V.D.D.D.D.D.D.S.U . .                                     ",
"                                  . . 7.D.D.D.D.V.V.D.V.D.V.D.V.D.D.V.V.D.D.V.V.D.D.D.N.3 .                                     ",
"                                  . . w.h.h.h.j.j.j.j.l.j.j.j.j.j.c.j.j.j.j.h.h.j.z.h.h.U .                                     ",
"                                  . + 1.a.a.a.a.a.a.a.a.a.a.a.a.a.a.a.a.a.a.a.a.a.a.a.a.+.. .                                   ",
"                                  . . -.a.a.a.a.a.a.a.a.a.a.a.a.a.a.a.a.a.a.a.a.a.a.a.a.1.. .                                   ",
"                                  . . ) a.a.a.a.a.a.a.a.a.a.a.a.p.p.a.a.a.a.a.a.a.a.a.a.1.. .                                   ",
"                                . . . f D Z G K 1.a.r.L Z F F F H H H H Z H H H H Z H Z N . . .                                 ",
"                        . . . . . . . . . . . . T c._ . . . . . . . . . . . . . . . . . . . . . . . . .                         ",
"                    . . . d Y '  .] ] ] ] ] ] O.v.D.N.O.] ] ] ]  . . . . . . . .] ] ] ] ] ] ] ] ' Y u . . .                     ",
"                  . . 7 *.S.D.D.D.D.D.D.D.D.D.D.D.D.D.D.D.D.D.D.V.D.D.D.D.D.S.S.D.D.D.D.D.D.D.D.D.D.D.*.7 . .                   ",
"                  . r k.D.D.D.D.D.D.D.D.D.D.D.D.D.D.D.D.D.D.D.D.D.D.D.D.D.D.D.D.D.D.D.D.D.D.D.D.D.D.D.D.f.r .                   ",
"                . = i.D.D.D.D.D.D.D.D.D.D.D.D.D.D.D.D.D.D.D.D.D.D.D.D.D.D.D.D.D.D.D.D.D.D.D.D.D.D.D.D.D.D.i.$ .                 ",
"                . P D.D.D.D.D.D.D.D.D.D.D.D.D.D.N.D.D.D.D.D.D.D.D.D.D.D.D.D.D.S.D.D.D.D.D.D.D.D.D.D.D.D.D.D.P .                 ",
"              . . 9.D.D.D.D.D.D.D.D.D.D.D.D.D.f.< ! D.D.D.D.D.D.D.D.S.D.D.D.~ 2 f.D.D.D.D.D.D.D.D.D.D.D.D.D.0.. .               ",
"              . . S.D.D.D.D.D.D.D.D.D.D.D.D.D.6.. A D.D.D.b b $.$.c M D.D.D.C . 7.D.D.D.D.D.D.D.D.D.D.D.D.D.S.+ .               ",
"              . : j.j.j.j.j.j.j.j.j.j.j.j.n.T.R.z [ j.j.j.g . . . . j j.j.j._ s U.T.b.j.j.j.j.j.j.j.j.j.j.j.j.: .               ",
"              . . y.a.a.a.a.a.a.a.a.a.a.a.I.E.E.E.K.a.a.a.a.{ Z Z } p.a.a.a.P.E.E.E.P.a.a.a.a.a.a.a.a.a.a.a.r.. .               ",
"              . . } a.a.a.a.a.a.a.a.a.a.a.G.E.E.E.F.a.a.a.a.a.a.a.a.a.a.a.a.G.E.E.E.G.a.a.a.a.a.a.a.a.a.a.a.{ . .               ",
"                . x a.a.a.a.a.a.a.a.a.a.a.a.Z.J.C.a.a.a.a.a.a.a.a.a.a.a.a.a.a.Z.J.Z.a.a.a.a.a.a.a.a.a.a.a.a.k .                 ",
"                . . ) a.p.a.a.a.a.a.a.a.a.a.a.a.a.a.a.a.a.a.a.a.a.a.a.a.a.a.a.a.a.a.a.a.a.a.a.a.a.a.a.a.a./ . .                 ",
"                  . & ^ -.-.=.=.-.+.-.-.=.=.=.=.=.=.=.=.=.=.=.=.=.=.=.=.=.=.=.=.=.=.=.=.=.=.=.-.=.=.=.=./ & .                   ",
"          . . . . . . . . . . . . . . . . . . . . . . . . . . . . . . . . . . . . . . . . . . . . . . . . . . . . . .           ",
"        . . . u b B B B B B B B B B B B B B B B B B B B B B B B B B B B B B B B B B B B B B B B B B B B B B B b a . . .         ",
"      . & P f.D.D.D.D.D.D.D.D.D.S.D.D.D.D.D.D.D.D.D.D.D.D.D.D.D.S.D.D.D.D.D.D.D.D.D.D.D.D.D.D.D.D.D.D.D.D.D.D.D.D.d.G + .       ",
"    . 1 4.D.D.D.D.D.D.D.D.D.D.D.D.D.D.D.D.D.D.D.D.D.D.D.D.D.D.D.D.D.D.D.D.D.D.D.D.D.D.D.D.D.D.D.D.D.D.D.D.D.D.D.D.D.D.2.2 .     ",
"  . . *.D.D.D.D.D.D.D.D.D.D.D.D.D.D.D.D.D.D.D.D.D.D.D.D.D.D.D.D.D.D.D.D.D.D.D.D.D.D.D.D.D.D.D.D.D.D.D.D.D.D.D.D.D.D.D.D.*.. .   ",
"  . C D.D.D.D.D.D.D.D.D.D.D.D.D.D.D.D.D.D.D.D.D.D.D.D.D.D.D.D.D.D.D.D.D.D.D.D.D.D.D.D.D.D.D.D.D.D.D.D.D.D.D.D.D.D.D.D.D.S.B .   ",
". . 6.D.D.D.D.D.D.D.D.D.D.D.D.D.D.D.D.D.D.D.D.D.D.D.D.D.D.D.D.D.D.D.D.D.D.D.D.D.D.D.D.D.D.D.D.D.D.D.D.D.D.D.D.D.D.D.D.D.D.4.. . ",
". & V.D.D.D.D.D.D.D.D.D.D.D.D.D.D.D.D.D.D.D.D.D.D.D.D.D.D.D.D.D.D.D.D.D.D.D.D.D.D.D.D.D.D.D.D.D.D.D.D.D.D.D.D.D.D.D.D.S.D.S.+ . ",
". 3 m.m.m.m.m.m.m.m.m.m.m.m.m.m.m.m.m.m.m.m.m.m.m.m.m.m.m.m.m.m.m.m.m.m.m.m.m.m.m.m.m.m.m.m.m.m.m.m.m.m.m.m.m.m.m.m.m.m.m.m.4 . ",
". : a.a.a.a.a.a.a.a.a.a.a.a.a.a.a.a.a.a.a.a.a.a.a.a.a.a.a.a.a.a.a.a.a.a.a.a.a.a.a.a.a.a.a.a.a.a.a.a.a.a.a.a.a.a.a.a.a.a.a.a.= . ",
". . :.a.a.a.a.a.a.a.a.a.a.a.a.a.a.a.a.a.a.a.a.a.a.a.a.a.a.a.a.a.a.a.a.a.a.a.a.a.a.a.a.a.a.a.a.a.a.a.a.a.a.a.a.a.a.a.a.a.a.:.. . ",
"  . J a.a.a.a.a.a.a.a.a.a.a.a.a.a.a.a.a.a.a.a.a.a.a.a.a.a.a.a.a.a.a.a.a.a.a.a.a.a.a.a.a.a.a.a.a.a.a.a.a.a.a.a.a.a.a.a.a.a.J .   ",
"  . : 1.a.a.a.a.a.a.a.a.a.a.a.a.a.a.a.a.a.a.a.a.a.a.a.a.a.a.a.a.a.a.a.a.a.a.a.a.a.a.a.a.a.a.a.a.a.a.a.a.a.a.a.a.a.a.a.a.>.: .   ",
"  . . u r.a.a.a.a.a.a.a.a.a.a.a.a.a.a.a.a.a.a.a.a.a.a.a.a.a.a.a.a.a.a.a.a.a.a.a.a.a.a.a.a.a.a.a.a.a.a.a.a.a.a.a.a.a.a.r.u . .   ",
"    . . 9 X.a.a.a.a.a.a.a.a.a.a.a.a.a.a.a.a.a.a.a.a.a.a.a.a.a.a.a.a.a.a.a.a.a.a.a.a.a.a.a.a.a.a.a.a.a.a.a.a.a.a.a.a...7 . .     ",
"      . . . u F R Q Q Q Q Q Q Q Q Q Q Q Q Q Q Q Q Q Q Q Q Q Q Q Q Q Q Q Q Q Q Q Q Q Q Q Q Q Q Q Q Q Q Q Q Q Q R F u . . .       ",
"          . . . . . . . . . . . . . . . . . . . . . . . . . . . . . . . . . . . . . . . . . . . . . . . . . . . . . .           ",
"                  . . . . . . . . . . . . . . . . . . . . . . . . . . . . . . . . . . . . . . . . . . . . . .                   ",
"                                                                                                                                ",
"                                                                                                                                ",
"                                                                                                                                ",
"                                                                                                                                ",
"                                                                                                                                ",
"                                                                                                                                ",
"                                                                                                                                ",
"                                                                                                                                "
};
