/* XPM */
static char *poop_321718749929[] = {
/* columns rows colors chars-per-pixel */
"32 32 56 1 ",
"  c None",
". c #5A4D4D",
"X c #594E4D",
"o c #685956",
"O c #695956",
"+ c #AA7965",
"@ c #AB7965",
"# c #AB8170",
"$ c #B88975",
"% c #B98975",
"& c #BA8A76",
"* c #B3837F",
"= c #C8866A",
"- c #C8866B",
"; c #CA876C",
": c #CA896D",
"> c #CB896D",
", c #CC8B6F",
"< c #CD8C6F",
"1 c #CD8C70",
"2 c #CD8D71",
"3 c #CE8F72",
"4 c #CF8F72",
"5 c #D19175",
"6 c #D19176",
"7 c #D29176",
"8 c #D19376",
"9 c #D29376",
"0 c #D3907B",
"q c #D39578",
"w c #D29579",
"e c #D39579",
"r c #D5977B",
"t c #D6977B",
"y c #D4917D",
"u c #D99B7F",
"i c #B58480",
"p c #DA9786",
"a c #DA9B80",
"s c #D99D81",
"d c #DB9C80",
"f c #DA9C81",
"g c #DA9D81",
"h c #DA9E81",
"j c #DB9F81",
"k c #D99D82",
"l c #DB9D82",
"z c #DB9E82",
"x c #DB9F82",
"c c #DB9E83",
"v c #DB9887",
"b c #DC988A",
"n c #DD998B",
"m c #F3ABAE",
"M c #EDABB1",
"N c #EEABB2",
/* pixels */
"                                ",
"                                ",
"                                ",
"                                ",
"             z                  ",
"           zzzz                 ",
"          zzzzzzzzzz            ",
"         zzzzzzzzzzzzz          ",
"         zzzzzzzzzzzzz          ",
"         66666666666666         ",
"         ==============         ",
"         ;=============         ",
"      zzzzuuuuzzuuuuuuzzzz      ",
"     zzzzzzzzzcczzzzzzzzzzz     ",
"    zzzzzzzzzzzczzzzzzzzzzzz    ",
"    zzzzzzz$oz$+#&zo&zzzzzzz    ",
"   6,,,,,,vNi<+..+,*Np1>111>q   ",
"    ======ymb======bmq======    ",
"    2======================>    ",
"    zr99999999969996996666tl    ",
" xxxzzzzzzzzzzzzxxxlxlxlxlxlxxx ",
" xxlzzzzzzzzzzzzxxlxlxlxlxlxxxx ",
"xllxzzzzzzzzzzzzxxxlxlxlxlxllxxx",
"qqqqqqqqqqqqqqqqqqqqqqqqqqqqqqqq",
";==============================,",
"4==============================2",
" 2=======================;=-=;> ",
"   22222222222222222222211122   ",
"                                ",
"                                ",
"                                ",
"                                "
};
