/* XPM */
static char *toilet1716932825[] = {
/* columns rows colors chars-per-pixel */
"64 64 81 1 ",
"  c None",
". c #000000",
"X c #00070A",
"o c #00090D",
"O c #0B0B0B",
"+ c #000D13",
"@ c #131313",
"# c #1C1C1C",
"$ c #001722",
"% c #001924",
"& c #002739",
"* c #002A3D",
"= c #222222",
"- c #2B2B2B",
"; c #2D2F30",
": c #2F3132",
"> c #343535",
", c #353738",
"< c #3B3B3B",
"1 c #012E43",
"2 c #013851",
"3 c #01405C",
"4 c #014664",
"5 c #01577D",
"6 c #444444",
"7 c #46494A",
"8 c #4A4A4A",
"9 c #535454",
"0 c #535758",
"q c #575B5C",
"w c #5C5C5C",
"e c #5C6061",
"r c #626262",
"t c #67696A",
"y c #6C6C6C",
"u c #6F6F70",
"i c #6B7072",
"p c #717171",
"a c #7B7B7B",
"s c #025480",
"d c #016693",
"f c #016896",
"g c #0175A8",
"h c #017DB4",
"j c #7E8386",
"k c #0286C2",
"l c #02A0E8",
"z c #02A9F4",
"x c #838383",
"c c #808688",
"v c #85888A",
"b c #8C8C8C",
"n c #939393",
"m c #94999B",
"M c #9E9E9E",
"N c #ACACAC",
"B c #A7AEB1",
"V c #AAB1B4",
"C c #AFB6BA",
"Z c #B1B1B1",
"A c #B9B9B9",
"S c #B7BEC1",
"D c #BFC4C6",
"F c #BEC6CA",
"G c #C5C5C5",
"H c #CBCBCB",
"J c #C8CED0",
"K c #CED7DB",
"L c #CFD8DC",
"P c #D4D4D4",
"I c #D1DADE",
"U c #DCDCDC",
"Y c #D6DDE1",
"T c #D9DFE2",
"R c #DDE2E5",
"E c #E3E3E3",
"W c #E2E6E8",
"Q c #E6EAEC",
"! c #E8EAEA",
"~ c #EDEFF0",
"^ c #F5F5F5",
/* pixels */
"         ..............................................         ",
"        ................................................        ",
"        .=GPPPPPPPPPPPPPPPPPPPPPPPPPPPPPPPPPPPPPPPPPSB#.        ",
"       ..r^^^^^^^^^^^^^^^^^^^^^^^^^^^^^^^^^^^^^^^^^^RL0..       ",
"       ..r^^^^^^^^^^^^^^^^^^^^^^^^^^^^^^^^^^^^^^^^^^YL0..       ",
"        .9^^^^^^^^^^^^^^^^^^^^^^^^^^^^^^^^^^^^^^^^^^YL8.        ",
"        ..9rrrrrrrrrrrrrrrrrrrrrrrrrrrrrrrrrrrrrrrrr07..        ",
"        ................................................        ",
"          ...888888888888888888888888888888888886>>...          ",
"           ..mMMMMMMMMMMMMMMMMMMMMMMMMMMMMMMMMMMmpy..           ",
"           ..vMMMMMMMMMMMMMMMMMMMMMMMMMMMMMMMMMMnuw..           ",
"           ..pMMMMMMMMMMMMMMMMMMMMMMMMMMMMMMMMMMbu9..           ",
"           ..rMMMMMMMMMMMMMMMMMMMMMMMMMMMMMMMMMMxu6..           ",
"           ..9MMMMMMMMMMMMMMMMMMMMMMMMMMMMMMMMMMxu,..           ",
"           ..<MMMMMMMMMMMMMMMMNMMMMMMMMMMMMMMMMMau-..           ",
"            .-MMMMMMMMMMMMMMMMmMMMMMMMMMMMMMMMMMpu=.            ",
"            .#MMMMMMMMMMMMMMMMMMMMMMMMMMMMMMMMMMppO.            ",
"            ..MMMMMMMMMMMMMMMMMMMMMMMMMMMMMMMMMmpuO.            ",
"     .      ..nMMMMMMMMMMMMMMMMMMMMMMMMMMMMMMMmnyt..      .     ",
"    ..      ..aMMMMMMMMMMMMMMMMMMMMMMMMMMMMMMMNbuw..      ..    ",
"    ..      ..ymMMmNMMMbat96<<>--><<69yabMMMMMMbu8..      ..    ",
"    ..      ..qNMMby8=O..................O=6ybMxu6..      ..    ",
" ...   ...  ..8b9#......=<9yaxxnnxxay9>=......#<r>..  ...   ... ",
"....  .....  .O....-yMH^^^^^^^^^^^^^^^^^^HMy-....O.  .....  ....",
" ..    ...  ....,nE^^^^^^UGZMnnxxnnmZGU^^^^^^Uv>....  ...    .. ",
"    ..      ..<G^^^^Hvr,O..............O>rvH^^^!B,..      ..    ",
"    ..     ..p^^^^^N......o%&112211&%X......N^^^QKe..     ..    ",
"    ..     .@^^^^^^8.o3fklzzzzzzzzzzzzlks1X.9^^^^IK#.     ..    ",
"     .     ..H^^^^^y...+*45dghhkkhhgd54&o...i^^^^KC..     .     ",
"           ..@N^^^^!w@....................@r!^^^Ym@..           ",
"           ....6N^^^^^EAny9<-==O@==-<9ynA!^^^^Qm,....           ",
"           .O8...@wME^^^^^^^^^^^^^^^^^^^^^^Um9@...>O.           ",
"           ..Mb6O....#6pnNGU!^^^^^^!UGNbu6@....O6ry..           ",
"           ..xMMMp6#...........OO...........=6pMnur..           ",
"           ..rMMMMMMnar8>#O..........O=>8ramMMMMvp6..           ",
"           ..>MMMMMMMMMMMMMMmnbaxvnmMMMMMMMMMMMMay-..           ",
"            .OMmMMMMMMMMMMMMMMMMMMMMMMMMMMMMMMMMpuO.            ",
"            ..pNMMMMMMMMMMMMMMMMMMMMMMMMMMMMMMMbu9..            ",
"            ..>MMMMMMMMMMMMMMMMMMMMMMMMMMMMMMMMau=..            ",
"             ..aMMMMMMMMMMMMMMMMMMMMMMMMMMMMMMnuq..             ",
"             ..=MMMMMMMMMMMMMNMMMMMMMMMMMMMMMMau#..             ",
"              ..9MMMMMMMMMMMMMMMMMMMMMMMMMMMMbp,..              ",
"               ..yMMMMMMMMMMMMMMMMMMMMMMMMMMnp8..               ",
"               ...yMMMMMMMMMMMMMMMMMMMMMMMMma8...               ",
"      ..        ...8MMMMMMMMMMMMMMMMMMMMMMmp>...        ..      ",
"      ...        ...#pMMMMMMMMMMMMMMMMMMMb9@...        ...      ",
"      ...         ....=rnMMMMMMMMMMMMMMb8@....         ...      ",
"       .          .<yO...=8tabnMMnbat6#...Or>.          .       ",
"  ....   ....    ..y^Ua-................-aJLq..    ....   ....  ",
"  ....   ....    ..a^^^^Pbr<@......@,tbP^^RLi..    ....   ....  ",
"       .         ..m^^^^^^^^^^!UU!^^^^^^^^WLc..         .       ",
"      ...        ..Z^^^^^^^^^^^^^^^^^^^^^^QIm..        ...      ",
"      ...        ..H^^^^^^^^^^^^^^^^^^^^^^~LV..        ...      ",
"      ..         ..E^^^^^^^^^^^^^^^^^^^^^^~LF..         ..      ",
"                 ..^^^^^^^^^^^^^^^^^^^^^^^^KK..                 ",
"                 .=^^^^^^^^^^^^^^^^^^^^^^^^KK#.                 ",
"                 .,^^^^^^^^^^^^^^^^^^^^^^^^IL:.                 ",
"                 .9^^^^^^^^^^^^^^^^^^^^^^^^YL6.                 ",
"                ..y^^^^^^^^^^^^^^^^^^^^^^^^RLq..                ",
"                ..a^^^^^^^^^^^^^^^^^^^^^^^^RLi..                ",
"                ..n^^^^^^^^^^^^^^^^^^^^^^^^WKj..                ",
"                ..8PPPPPPPPPPPPPPPPPPPPPPPPDC6..                ",
"                 ..............................                 ",
"                  ............................                  "
};
