/* XPM */
static char *toilet_321718749928[] = {
/* columns rows colors chars-per-pixel */
"32 32 189 2 ",
"   c None",
".  c black",
"X  c #010101",
"o  c #020202",
"O  c gray1",
"+  c #010304",
"@  c #020405",
"#  c #030506",
"$  c #040404",
"%  c gray2",
"&  c #060606",
"*  c #070707",
"=  c gray3",
"-  c #090909",
";  c gray4",
":  c #0B0B0B",
">  c #0C0C0C",
",  c #0C0C0D",
"<  c gray5",
"1  c #0D0D0E",
"2  c #0E0E0E",
"3  c gray6",
"4  c #101010",
"5  c #101011",
"6  c #111111",
"7  c #111112",
"8  c gray7",
"9  c #131313",
"0  c gray8",
"q  c #141515",
"w  c #151515",
"e  c #161616",
"r  c #161717",
"t  c #181818",
"y  c #191919",
"u  c #18191A",
"i  c #191A1A",
"p  c gray10",
"a  c gray11",
"s  c #1E1E1E",
"d  c gray12",
"f  c #091C25",
"g  c #0C1F27",
"h  c #121B20",
"j  c #191F22",
"k  c #042232",
"l  c #0B2D3D",
"z  c #0D2D3C",
"x  c gray13",
"c  c #222222",
"v  c #232323",
"b  c #232424",
"n  c gray14",
"m  c #242525",
"M  c #252525",
"N  c #242526",
"B  c #282828",
"V  c gray16",
"C  c #2A2A2A",
"Z  c #2D2D2D",
"A  c gray18",
"S  c #303131",
"D  c #303132",
"F  c #313233",
"G  c #323232",
"H  c gray20",
"J  c gray21",
"K  c #37393A",
"L  c gray22",
"P  c #393939",
"I  c gray23",
"U  c #3C3C3C",
"Y  c #3E3E3E",
"T  c #0D3040",
"R  c #0A374C",
"E  c #0C394E",
"W  c #084059",
"Q  c #09415A",
"!  c #364247",
"~  c #394347",
"^  c #044564",
"/  c #054B6A",
"(  c #01577E",
")  c #434444",
"_  c gray27",
"`  c #454546",
"'  c gray28",
"]  c #454849",
"[  c #484848",
"{  c gray29",
"}  c #4B4B4B",
"|  c #4C4C4C",
" . c #4C4D4D",
".. c gray30",
"X. c #424D52",
"o. c #4A5155",
"O. c #505050",
"+. c #515151",
"@. c gray32",
"#. c #515456",
"$. c gray33",
"%. c #555555",
"&. c #575758",
"*. c #585858",
"=. c #5B5B5B",
"-. c #5D5D5D",
";. c #565D61",
":. c #5B5E60",
">. c #5E6061",
",. c #5C6062",
"<. c #606060",
"1. c gray38",
"2. c gray39",
"3. c #656666",
"4. c #676767",
"5. c #686868",
"6. c DimGray",
"7. c #6A6A6A",
"8. c #6D6D6D",
"9. c #6E7375",
"0. c gray44",
"q. c #717171",
"w. c #747474",
"e. c gray47",
"r. c #787979",
"t. c #797979",
"y. c gray48",
"u. c #7B7B7B",
"i. c gray50",
"p. c #015A82",
"a. c #016490",
"s. c #016D9D",
"d. c #808080",
"f. c #848484",
"g. c gray52",
"h. c #868686",
"j. c #84898C",
"k. c #898989",
"l. c gray54",
"z. c #8B8B8C",
"x. c gray55",
"c. c #8D8D8D",
"v. c #8E8E8E",
"b. c #8C9294",
"n. c gray57",
"m. c #939393",
"M. c #979797",
"N. c #989898",
"B. c gray60",
"V. c gray61",
"C. c #9D9D9D",
"Z. c gray62",
"A. c #989EA1",
"S. c #A0A0A0",
"D. c #A0A3A4",
"F. c #A4A4A4",
"G. c #A5A5A5",
"H. c #ABAEAE",
"J. c gray68",
"K. c #AEAEAE",
"L. c #B4B4B4",
"P. c gray71",
"I. c #BBBBBB",
"U. c #BCBCBC",
"Y. c gray75",
"T. c #C0C7CA",
"R. c #C9CED1",
"E. c #D2D2D2",
"W. c gray84",
"Q. c #D1D9DC",
"!. c #D4DCDF",
"~. c #DADCDD",
"^. c #DFDFDF",
"/. c #D9E0E2",
"(. c #DDE3E5",
"). c #DEE3E6",
"_. c gray89",
"`. c #E1E5E7",
"'. c gray90",
"]. c #E7E7E7",
"[. c #E4E8EA",
"{. c gray91",
"}. c gray92",
"|. c #E8EBEC",
" X c #EDEEEE",
".X c #EFEFEF",
"XX c gray94",
"oX c #F4F5F5",
"OX c gray96",
/* pixels */
"        < X X X X X X X X X X X X X X X X X X X X X X r         ",
"        e ^.'.'.'.'.'.'.'.'.'.'.'.'.'.'._.{.'.'.'.'.T.u         ",
"        x oXoXoXoXoXoXoXoXoXoXoXoXoXoXoXoXOXoXoXoXoX!.M         ",
"        - x n n n n n M n n n n n n n n n n n n x x M <         ",
"          O P w.w.w.w.w.w.w.w.w.w.w.w.w.w.w.w.w.<.C &           ",
"            U Z.Z.Z.Z.Z.Z.Z.Z.Z.Z.Z.Z.Z.Z.Z.Z.Z.i.Z             ",
"            M Z.Z.Z.Z.Z.Z.Z.Z.Z.Z.Z.Z.Z.Z.Z.Z.Z.t.d             ",
"            9 Z.Z.Z.Z.Z.Z.Z.Z.Z.Z.Z.Z.Z.Z.Z.Z.Z.w.8             ",
"            & Z.Z.Z.Z.Z.Z.Z.Z.Z.Z.Z.Z.Z.Z.Z.Z.Z.q.$             ",
"    X       X m.Z.Z.Z.Z.Z.Z.Z.Z.Z.Z.Z.Z.Z.Z.Z.M.5.X       X     ",
"    X       & d.Z.c.7.| U C x y y M C U | 7.c.m.=.-       X     ",
"X X   X X   - U x & G 7.c.Z.K.Y.Y.K.Z.l.3.G & M C <   X X   X X ",
"    X       - U K.XXE.S.t.:.o.~ ! X.;.e.A.E..XD.K <       X     ",
"    X     - -.oXoXY.# z / p.a.s.s.a.( ^ k $ Y.oX).#.8     X     ",
"          - J _.oXW.j $ g T E Q W R l f $ h W.oXR.G 8           ",
"          - y 8 7.L.{._.U.G.N.l.l.M.G.I._.{.H.:.8 9 <           ",
"          X { h.| n O n ' *.7.u.t.7.&.` x X M | q.J X           ",
"            x Z.V.Z.n.u.2.+.| ) ) { $.<.t.M.Z.Z.t.y             ",
"            O m.Z.Z.Z.Z.Z.Z.Z.Z.Z.Z.Z.Z.Z.Z.Z.N.3.O             ",
"            * O.Z.Z.Z.Z.Z.Z.Z.Z.Z.Z.Z.Z.Z.Z.Z.h.P <             ",
"              & h.Z.Z.Z.Z.Z.Z.Z.Z.Z.Z.Z.Z.Z.N.<.&               ",
"              * 9 v.Z.Z.Z.Z.Z.Z.Z.Z.Z.Z.Z.V.8.9 -               ",
"      X         * : 8.Z.Z.Z.Z.Z.Z.Z.Z.Z.N.#.> -         X       ",
"      X           : t n +.e.x.N.N.x.w.` y q <           X       ",
"  X X   X X       Z XXG.%.n O X X O s $.G.Q.G       X X   X X   ",
"      X           | oXoXoXoXOX}.}.oXoXOXoX/.]           X       ",
"      X         X 7.OXOXOXOXOXOXoXOXoXOXoX).:.X         X       ",
"                : f.OXoXOXOXOXOXOXOXoXoXoX`.9.8                 ",
"                8 Z.oXoXoXoXoXoXOXOXOXOXoX[.j.y                 ",
"                < L.oXoXOXoXoXoXOXOXOXOXoX[.A.t                 ",
"                < G.'.'.{._.'.'.'.'.{._.'.~.b.e                 ",
"                  & X X X X X X X X X X X X &                   "
};
