/* XPM */
static char *toilet_paper1716932825[] = {
/* columns rows colors chars-per-pixel */
"64 64 103 2 ",
"   c None",
".  c #6C6DAD",
"X  c #6E71AE",
"o  c #6F78AF",
"O  c #7173AE",
"+  c #7D7BAB",
"@  c #7475B1",
"#  c #7779B2",
"$  c #7A7CB4",
"%  c #817EA7",
"&  c #827EAA",
"*  c #7786B0",
"=  c #7D81B7",
"-  c #7B8EB1",
";  c #9E939F",
":  c #A4979E",
">  c #AB9C9C",
",  c #BDAA97",
"<  c #B1A19B",
"1  c #BDA998",
"2  c #8885A7",
"3  c #8F88A3",
"4  c #8682AA",
"5  c #8C86AA",
"6  c #8F89A9",
"7  c #958DA4",
"8  c #988FA1",
"9  c #928CA9",
"0  c #9C91A0",
"q  c #9D94A8",
"w  c #8284B8",
"e  c #8689B9",
"r  c #8A8DBC",
"t  c #9093BE",
"y  c #A297A6",
"u  c #A69AA6",
"i  c #AC9FA5",
"p  c #A196A8",
"a  c #81A1B4",
"s  c #84A9B6",
"d  c #89B3B7",
"f  c #88B3B8",
"g  c #8CBCB8",
"h  c #ADA0A6",
"j  c #B3A4A5",
"k  c #BCABA4",
"l  c #DABF8F",
"z  c #C2AE96",
"x  c #CBB494",
"c  c #D3BA92",
"v  c #D9BF90",
"b  c #D7BE9C",
"n  c #C5B2A3",
"m  c #CAB6A2",
"M  c #D5BEA1",
"N  c #93CCBB",
"B  c #99DABD",
"V  c #DFC38E",
"C  c #E1C58F",
"Z  c #E3C690",
"A  c #E7CA93",
"S  c #EACC95",
"D  c #E0C69F",
"F  c #E6CB9F",
"G  c #EACE9E",
"H  c #EDD097",
"J  c #EED19E",
"K  c #F4D69C",
"L  c #F7D89D",
"P  c #D7C0A0",
"I  c #DEC5A0",
"U  c #E0C7A0",
"Y  c #E2C8A0",
"T  c #8E90C1",
"R  c #9295C2",
"E  c #9798C1",
"W  c #9C9DC3",
"Q  c #9FA0C5",
"!  c #A4A5C7",
"~  c #A2A4CC",
"^  c #A7A9CE",
"/  c #A8A9CA",
"(  c #B3B4CE",
")  c #ACADD1",
"_  c #B7B8D7",
"`  c #B9BAD1",
"'  c #BDBEDA",
"]  c #C3C3D6",
"[  c #C3C4DE",
"{  c #CDCDDA",
"}  c #CFD0DC",
"|  c #D5D5DE",
" . c #D5D5E6",
".. c #DBDBE1",
"X. c #DBDBEB",
"o. c #DFE0ED",
"O. c #E6E6E6",
"+. c #EBEBEB",
"@. c #E4E5F0",
"#. c #EBEBF4",
"$. c #F4F4F4",
"%. c #F2F2F8",
"&. c #FFFFFF",
/* pixels */
"                                                                                                                                ",
"                                                                                                                                ",
"                                                                                                                                ",
"                                                                                                                                ",
"                                                                                                                                ",
"                                                                                                                                ",
"                                                                                                                                ",
"                                                                                                                                ",
"                        X . . O . . . X $ = $ $ = $ $ $ = $ $ $ = $ $ = $ $ = $ $ $ $ $ $ $ $ $ # . . X                         ",
"                    O . u I K A l 1 2 . ' &.&.&.&.&.&.&.&.&.&.&.&.&.&.&.&.&.&.&.&.&.&.&.$.+.O.O.O.O.| / O X                     ",
"                  . + D L L L L S Z V < . ^ &.&.&.&.&.&.&.&.&.&.&.&.&.&.&.&.&.&.&.&.&.&.&.$.+.O.O.O.O.O...e X                   ",
"                X & G L L L L L L S V V , X _ &.&.&.&.&.&.&.&.&.&.&.&.&.&.&.&.&.&.&.&.&.&.&.&.+.O.O.O.O.O.O.r o                 ",
"              . O F L L L L L L L L S C V < . X.&.&.&.&.&.&.&.&.&.&.&.&.&.&.&.&.&.&.&.&.&.&.&.$.O.O.O.O.O.O.o.# X               ",
"              . x L L L L L L L L L K C V V 7 w &.&.&.&.&.&.&.&.&.&.&.&.&.&.&.&.&.&.&.&.&.&.&.&.$.O.O.O.O.O.O.] .               ",
"            X 9 L L L L L L L L L L L S V V c X [ &.&.&.&.&.&.&.&.&.&.&.&.&.&.&.&.&.&.&.&.&.&.&.&.O.O.O.O.O.O.O.t X             ",
"            . P L L L L L L L L L L L K C V V 0 $ &.&.&.&.&.&.&.&.&.&.&.&.&.&.&.&.&.&.&.&.&.&.&.&.$.O.O.O.O.O.O.{ .             ",
"          X 5 L L L L L L L L L L L L L S V V c .  .&.&.&.&.&.&.&.&.&.&.&.&.&.&.&.&.&.&.&.&.&.&.&.&.O.O.O.O.O.O.+.w .           ",
"          . k L L L L L L L L L L L L L K Z V V 4 ~ &.&.&.&.&.&.&.&.&.&.&.&.&.&.&.&.&.&.&.&.&.&.&.&.+.O.O.O.O.O.O.( O           ",
"          . G L L L L L L L M n Y L L L K Z V V > # &.&.&.&.&.&.&.&.&.&.&.&.&.&.&.&.&.&.&.&.&.&.&.&.$.O.O.O.O.O.O.| X           ",
"        . & L L L L L L Y 4 . X X p K L K A V V x . @.&.&.&.&.&.&.&.&.&.&.&.&.&.&.&.&.&.&.&.&.&.&.&.$.O.O.O.O.O.O.O.= .         ",
"        O p K L L L L K & r @.&.] O i L L S C C V O [ &.&.&.&.&.&.&.&.&.&.&.&.&.&.&.&.&.&.&.&.&.&.&.&.+.O.O.O.O.O.O.W O         ",
"        . n L L L L L j # %.&.&.+.` . F L K V V V 2 ^ &.&.&.&.&.&.&.&.&.&.&.&.&.&.&.&.&.&.&.&.&.&.&.&.+.O.O.O.O.O.O.( X         ",
"        . b L L L L K + ) &.&.&.$.O.$ i L L V V V 0 R &.&.&.&.&.&.&.&.&.&.&.&.&.&.&.&.&.&.&.&.&.&.&.&.+.O.O.O.O.O.O.] .         ",
"        . D L L L L I . X.&.&.&.$.O.W 4 L K C V V : w &.&.&.&.&.&.&.&.&.&.&.&.&.&.&.&.&.&.&.&.&.&.&.&.$.O.O.O.O.O.O.| .         ",
"        . Y L L L L n X &.&.&.&.$.O.` . L L A C V > $ &.&.&.&.&.&.&.&.&.&.&.&.&.&.&.&.&.&.&.&.&.&.&.&.$.O.O.O.O.O.O....         ",
"        . K L L L L k # &.&.&.&.$.O.] . Y K Z C V < O &.&.&.&.&.&.&.&.&.&.&.&.&.&.&.&.&.&.&.&.&.&.&.&.$.O.O.O.O.O.O....         ",
"        . K L L L L k # &.&.&.&.+.O.] . K K C V C > O &.&.&.&.&.&.&.&.&.&.&.&.&.&.&.&.&.&.&.&.&.&.&.&.$.O.O.O.O.O.O.O..         ",
"        . Y L L L L m . $.&.&.&.O.O.` O K L C V C > O &.&.&.&.&.&.&.&.&.&.&.&.&.&.&.&.&.&.&.&.&.&.&.&.$.O.O.O.O.O.O.O..         ",
"        . I L L L L Y X  .&.&.$.O.O.R 5 L L C V V : X &.&.&.&.&.&.&.&.&.&.&.&.&.&.&.&.&.&.&.&.&.&.&.&.$.O.O.O.+.O.O....         ",
"        . M L L L L L 4 ~ &.$.O.O.O.@ k L K V V V 8 O &.&.&.&.&.&.&.&.&.&.&.&.&.&.&.&.&.&.&.&.&.&.&.&.$.O.O.O.O.O.O.O..         ",
"        . k K L L L L n .  .O.O.O.! O J L K C V V % O &.&.&.&.&.&.&.&.&.&.&.&.&.&.&.&.&.&.&.&.&.&.&.&.$.O.O.O.O.O.O.O..         ",
"        . q L L L L L K 9 # ` | ! . n K L S C V V . O &.&.&.&.&.&.&.&.&.&.&.&.&.&.&.&.&.&.&.&.&.&.&.&.$.O.O.O.O.O.O.O..         ",
"          + L L L L L L K y . . O n L L L A V V x . O &.&.&.&.&.&.&.&.&.&.&.&.&.&.&.&.&.&.&.&.&.&.&.&.$.O.O.O.O.O.O....         ",
"          . Y L L L L L K L J F L L L L L V V V : . O &.&.&.&.&.&.&.&.&.&.&.&.&.&.&.&.&.&.&.&.&.&.&.&.$.O.O.O.O.O.O.O..         ",
"          X j L L L L L L L L L L L L L K V V V + o X &.&.&.&.&.&.&.&.&.&.&.&.&.&.&.&.&.&.&.&.&.&.&.&.$.O.O.O.O.O.+.O..         ",
"          . + K L L L L L L L L L L K K A V V x X - O &.&.&.&.&.&.&.&.&.&.&.&.&.&.&.&.&.&.&.&.&.&.&.&.$.O.O.O.O.O.O.O..         ",
"            X m L L L L L L L L L L L K V V V 3 - f X &.&.&.&.&.&.&.&.&.&.&.&.&.&.&.&.&.&.&.&.&.&.&.&.$.O.O.O.O.O.O....         ",
"            . & K L L L L L L L L L L S V V x . N s X &.&.&.&.&.&.&.&.&.&.&.&.&.&.&.&.&.&.&.&.&.&.&.&.$.O.O.O.O.O.O.O..         ",
"              . j L L L L L L L L L K V V V 4 - B f X &.&.&.&.&.&.&.&.&.&.&.&.&.&.&.&.&.&.&.&.&.&.&.&.$.O.O.O.+.O.O.O..         ",
"                . M L L L L L L L K Z V V ; X N B f X &.&.&.&.&.&.&.&.&.&.&.&.&.&.&.&.&.&.&.&.&.&.&.&.$.O.O.O.O.O.O.O..         ",
"                . O P L L L L L L S V V > . g B B f X &.&.&.&.&.&.&.&.&.&.&.&.&.&.&.&.&.&.&.&.&.&.&.&.$.O.O.O.O.O.O....         ",
"                  X X n L L K K A V v ; . f B B B f @ &.&.&.&.&.&.&.&.&.&.&.&.&.&.&.&.&.&.&.&.&.&.&.&.$.O.+.O.O.O.O.O..         ",
"                    . . 4 n b c z : O X d N N N N s O &.&.&.&.&.&.&.&.&.&.&.&.&.&.&.&.&.&.&.&.&.&.&.&.$.O.O.O.O.O.O.O..         ",
"                        . X . . . . . . . . . . . . X &.&.&.&.&.&.&.&.&.&.&.&.&.&.&.&.&.&.&.&.&.&.&.&.$.O.O.O.O.O.O.O..         ",
"                                                    @ &.&.&.&.&.&.&.&.&.&.&.&.&.&.&.&.&.&.&.&.&.&.&.&.$.O.O.O.O.O.O....         ",
"                                                    . &.&.&.&.&.&.&.&.&.&.&.&.&.&.&.&.&.&.&.&.&.&.&.&.$.O.O.O.O.O.O.O..         ",
"                                                    X &.&.&.&.&.&.&.&.&.&.&.&.&.&.&.&.&.&.&.&.&.&.&.&.$.O.O.O.O.O.O.O..         ",
"                                                    X &.&.&.&.&.&.&.&.&.&.&.&.&.&.&.&.&.&.&.&.&.&.&.&.$.O.O.O.O.O.O.O..         ",
"                                                    X &.&.&.&.&.&.&.&.&.&.&.&.&.&.&.&.&.&.&.&.&.&.&.&.$.O.O.O.O.O.O.O..         ",
"                                                    X &.&.&.&.&.&.&.&.&.&.&.&.&.&.&.&.&.&.&.&.&.&.&.&.$.O.O.O.O.+.O.O..         ",
"                                                    X &.&.&.&.&.&.&.&.&.&.&.&.&.&.&.&.&.&.&.&.&.&.&.&.$.O.O.O.O.O.O.O..         ",
"                                                    X &.&.&.&.&.&.&.&.&.&.&.&.&.&.&.&.&.&.&.&.&.&.&.&.$.O.O.O.O.O.O.O..         ",
"                                                    X &.&.&.&.&.&.&.&.&.&.&.&.&.&.&.&.&.&.&.&.&.&.&.&.$.O.O.O.O.O.O.O..         ",
"                                                    . #.&.&.&.&.&.&.&.&.&.&.&.&.&.&.&.&.&.&.&.&.&.&.&.$.O.O.O.O.O.O.{ .         ",
"                                                    @ T %.&.&.&.&.&.&.&.&.&.&.&.&.&.&.&.&.&.&.&.&.&.&.O.O.O.O.O.O...w X         ",
"                                                      X . # $ $ $ $ $ $ $ # $ $ $ $ $ $ $ $ $ $ $ $ # # $ # # # # . .           ",
"                                                                                                                                ",
"                                                                                                                                ",
"                                                                                                                                ",
"                                                                                                                                ",
"                                                                                                                                ",
"                                                                                                                                ",
"                                                                                                                                ",
"                                                                                                                                "
};
