/* XPM */
static char *toilet_paper_321718749928[] = {
/* columns rows colors chars-per-pixel */
"32 32 164 2 ",
"   c None",
".  c #6C6FAD",
"X  c #7173AF",
"o  c #7E7AA9",
"O  c #787FAD",
"+  c #7E7CAC",
"@  c #7D7FB6",
"#  c #807DAB",
"$  c #837FAA",
"%  c #7B91B3",
"&  c #7B94B3",
"*  c #7E99B3",
"=  c #A59C9F",
"-  c #A79E9F",
";  c #BFAB96",
":  c #BEAA97",
">  c #8180AB",
",  c #8581AA",
"<  c #8587A8",
"1  c #8883A9",
"2  c #8B85A9",
"3  c #8B85AA",
"4  c #8E87A9",
"5  c #8D86AA",
"6  c #838AAB",
"7  c #8A8CA8",
"8  c #948EA4",
"9  c #988FA7",
"0  c #8392AD",
"q  c #9990A7",
"w  c #9694AA",
"e  c #8088B5",
"r  c #8189B6",
"t  c #8088B7",
"y  c #8C8FB6",
"u  c #8083B9",
"i  c #8289B8",
"p  c #888FBA",
"a  c #8C94BD",
"s  c #8D94BD",
"d  c #9692B2",
"f  c #9591B4",
"g  c #9492B7",
"h  c #9C96B1",
"j  c #9D97B4",
"k  c #9899B2",
"l  c #9E98B3",
"z  c #9195BD",
"x  c #9897B9",
"c  c #9399BF",
"v  c #969BBF",
"b  c #9998BA",
"n  c #9B99BE",
"m  c #A49AA1",
"M  c #A398A7",
"N  c #A499A6",
"B  c #A99FAC",
"V  c #86ABB6",
"C  c #ACA2A2",
"Z  c #AEA4A2",
"A  c #BFACA3",
"S  c #B9A9A4",
"D  c #B1A5AD",
"F  c #BBACA9",
"G  c #B8AAAC",
"H  c #C5B095",
"J  c #C7B194",
"K  c #CBB493",
"L  c #CFB792",
"P  c #D3BB91",
"I  c #D3BA92",
"U  c #D9BF90",
"Y  c #C1AFA8",
"T  c #C6B3A2",
"R  c #C8B3A2",
"E  c #CAB7A4",
"W  c #CBB7A4",
"Q  c #CEB9A3",
"!  c #CDBAA2",
"~  c #91C7BB",
"^  c #96D2BC",
"/  c #DCC18F",
"(  c #DFC38E",
")  c #E0C48E",
"_  c #E1C58F",
"`  c #E5C891",
"'  c #E6C992",
"]  c #E7CA93",
"[  c #E8CB94",
"{  c #EBCE96",
"}  c #E1C79F",
"|  c #E7CC9F",
" . c #ECCF9E",
".. c #EDD097",
"X. c #EED097",
"o. c #F3D59B",
"O. c #F4D59B",
"+. c #F2D49D",
"@. c #F4D69D",
"#. c #F5D69D",
"$. c #F6D79D",
"%. c #F7D89D",
"&. c #D7C1A2",
"*. c #9B9CC4",
"=. c #9EA3C4",
"-. c #A3A2C2",
";. c #A1A2C6",
":. c #A2A3C7",
">. c #A2A5C7",
",. c #A2A7C6",
"<. c #A2A6C7",
"1. c #A4A9C7",
"2. c #A3A4C8",
"3. c #A2A7C8",
"4. c #A4A8CD",
"5. c #A9AACB",
"6. c #A8ADC9",
"7. c #AAAFCC",
"8. c #ADAECE",
"9. c #B3B3CB",
"0. c #A9AAD0",
"q. c #ADAED2",
"w. c #B0B5D1",
"e. c #B0B6D1",
"r. c #B1B6D1",
"t. c #B0B6D2",
"y. c #B1B6D2",
"u. c #B2B3D4",
"i. c #B4B5D5",
"p. c #B5B6D6",
"a. c #B3B8D5",
"s. c #B3B8D6",
"d. c #B7BCD6",
"f. c #BEC1D4",
"g. c #BFC1D4",
"h. c #C5C7D7",
"j. c #C7CBDF",
"k. c #D5D5DE",
"l. c #CED0E3",
"z. c #DCDDEB",
"x. c #DCDDEC",
"c. c #E2E2E4",
"v. c #E4E4E5",
"b. c #E6E6E6",
"n. c #E7E7E7",
"m. c #E2E2EF",
"M. c gray91",
"N. c #E9E9E9",
"B. c #ECECED",
"V. c gray93",
"C. c #EFEFEF",
"Z. c #EDEDF5",
"A. c #F4F4F4",
"S. c gray96",
"D. c #F6F6FA",
"F. c #F8F8F8",
"G. c #F9F9F9",
"H. c gray98",
"J. c #FCFCFD",
"K. c #FDFDFD",
"L. c #FDFDFE",
"P. c #FEFEFE",
"I. c #FEFEFF",
"U. c white",
/* pixels */
"                                                                ",
"                                                                ",
"                                                                ",
"                                                                ",
"          + 5 m w X 4.s.a.a.a.a.s.s.s.s.s.r.6.6.1.a e           ",
"        # ! %.%.{ P y Z.U.U.U.U.U.U.U.U.U.U.U.B.v.n.h.e         ",
"      o T %.%.%.%.] P z U.U.U.U.U.U.U.U.U.U.U.U.B.v.M.g.e       ",
"      5 %.%.%.%.#.O.) C l.U.U.U.U.U.U.U.U.U.U.U.A.M.v.v.a       ",
"      ! %.%.%.%.%.%.] / c U.U.U.U.U.U.U.U.U.U.U.U.v.M.v.h.      ",
"    $ #.%.%.&.h F %.X.) k U.U.U.U.U.U.U.U.U.U.U.U.C.v.M.c.e     ",
"    5 #.#.| n D.9.Y o./ C x.U.U.U.U.U.U.U.U.U.U.U.A.v.v.v.p     ",
"    q %.#.D m.U.B.d %.) ; j.U.U.U.U.U.U.U.U.U.U.U.F.v.M.v.c     ",
"    N %.%.j U.U.B.b O.) J d.U.U.U.U.U.U.U.U.U.U.U.F.v.M.M.=.    ",
"    M %.%.l U.U.M.b %.) J r.U.U.U.U.U.U.U.U.U.U.U.F.M.v.v.1.    ",
"    q %.%.G z.A.v.d %.) : r.U.U.U.U.U.U.U.U.U.U.U.F.v.M.v.3.    ",
"    3 %.%. .g k.-.W O./ m r.U.U.U.U.U.U.U.U.U.U.U.F.M.v.M.,.    ",
"    > +.%.%.} D W %.X./ 7 t.U.U.U.U.U.U.U.U.U.U.U.F.M.v.M.1.    ",
"      R %.#.+.%.%.%.' U O t.U.U.U.U.U.U.U.U.U.U.U.F.v.M.v.1.    ",
"      1 %.%.%.%.%.O./ - V t.U.U.U.U.U.U.U.U.U.U.U.F.B.v.v.:.    ",
"        S %.%.%.%.' L 0 ~ t.U.U.U.U.U.U.U.U.U.U.U.F.v.v.n.:.    ",
"        # A %.%.] K 6 ^ ~ r.U.U.U.U.U.U.U.U.U.U.U.H.n.n.v.:.    ",
"            , 8 < . & * % r.U.U.U.U.U.U.U.U.U.U.U.H.v.v.M.,.    ",
"                          u.U.U.U.U.U.U.U.U.U.U.U.F.n.n.v.:.    ",
"                          u.U.U.U.U.U.U.U.U.U.U.U.F.v.n.n.:.    ",
"                          a.U.U.U.U.U.U.U.U.U.U.U.F.v.M.v.:.    ",
"                          u.U.U.U.U.U.U.U.U.U.U.U.J.M.v.M.,.    ",
"                          0.U.U.U.U.U.U.U.U.U.U.U.F.v.M.v.*.    ",
"                          u q.i.i.i.p.i.i.i.i.i.i.8.5.5.:.@     ",
"                                                                ",
"                                                                ",
"                                                                ",
"                                                                "
};
