/* XPM */
static char *public_toilet1718749929[] = {
/* columns rows colors chars-per-pixel */
"32 32 84 1 ",
"  c None",
". c black",
"X c #010100",
"o c #030200",
"O c #020301",
"+ c #030302",
"@ c #040200",
"# c #060503",
"$ c #060603",
"% c #0A0C05",
"& c #0D0C07",
"* c #0E120B",
"= c #14170F",
"- c #382107",
"; c #3A2307",
": c #182427",
"> c #19322B",
", c #00293B",
"< c #51320B",
"1 c #5A3A12",
"2 c #554401",
"3 c #5A4D09",
"4 c #73450E",
"5 c #79480F",
"6 c #7B490F",
"7 c #7D4A0F",
"8 c #7E4B0F",
"9 c #794910",
"0 c #7E6300",
"q c #7C6302",
"w c #00375B",
"e c #00375C",
"r c #03385A",
"t c #00385D",
"y c #00385E",
"u c #00395E",
"i c #003A61",
"p c #003B62",
"a c #034E6C",
"s c #004E6F",
"d c #004F71",
"f c #005275",
"g c #005579",
"h c gray50",
"j c #995B13",
"k c #9E7C00",
"l c #AC6715",
"z c #AF8900",
"x c #BB953F",
"c c #F08F1D",
"v c #F2901D",
"b c #F7931E",
"n c #F7C200",
"m c #F9C300",
"M c #FEC700",
"N c #005288",
"B c #00548B",
"V c #00558D",
"C c #00568F",
"Z c #007AAE",
"A c #006DB5",
"S c #0071BC",
"D c #0172BC",
"F c #0099DB",
"G c #3C92CC",
"H c #3F94CD",
"J c #009FE3",
"K c #4195CD",
"L c #4296CD",
"P c #4396CE",
"I c #7AB5DC",
"U c #7CB6DD",
"Y c #7DB7DD",
"T c #7FB8DD",
"R c #41B7EA",
"E c #42B8EA",
"W c #7CCEF1",
"Q c #7DCEF1",
"! c #7FCFF1",
"~ c #80B8DE",
"^ c #81B9DE",
"/ c #83BADE",
"( c #80CFF1",
") c #81D0F1",
/* pixels */
"        =..............*        ",
"       &lvbbbbbbxMMMMMmz%       ",
"       1c<#..........#2m3       ",
"      .9j:ASSSSSJJJJJF>kq.      ",
"      ...rSSSSSSJJJJJJa...      ",
"      .uiwSSSieudfdJJJsff.      ",
"      .uVNSSS.0000.JJJsfs.      ",
"      .uGHSSS.0..0.JJJsff.      ",
"      .uU/SSS.0hh0.JJJsfs.      ",
"      .uU/SSS.0..0.JJJsfd.      ",
"      .uDDSSS.0000.JJJsfd.      ",
"      .uiuSSSueudddJJJsfd.      ",
"      .uiwSSSSSSJJJJJJsfd.      ",
"      .uiwSSSSSSJJZggg,fd.      ",
"      .uiwSSSSSSJJd-44-fd.      ",
"      .uiwSSSSSSJJf8.@5fd.      ",
"      .uieSSSSSSJJs8585fd.      ",
"      .uiuSSSSSSJJd8585fd.      ",
"      .uiwSSSSSSJJd8585fd.      ",
"      .uiwSSSSSSJJd8.@5fd.      ",
"      .uVVSSSSSSJJd-44-fd.      ",
"      .uKPSSSSSSJJZggg,fd.      ",
"      .uU/SSSSSSJJJJJJsfd.      ",
"      .uU/SSSSSSJJJJJJsfd.      ",
"      .uSSSSSKKKEERJJJsfd.      ",
"      .uieSSST^^()(JJJsfd.      ",
"      .uieSSSUUUQQQJJJsfd.      ",
"      .uieSSSSSSJJJJJJsfd.      ",
"      .ui..............fd.      ",
"     .ieueueueuddddddddddd.     ",
"     .58588899580000000000.     ",
"     ......................     "
};
