/* XPM */
static char *public_toilet1716932824[] = {
/* columns rows colors chars-per-pixel */
"64 64 94 2 ",
"   c None",
".  c black",
"X  c #010100",
"o  c #030200",
"O  c #000203",
"+  c #040200",
"@  c #050301",
"#  c #060301",
"$  c #000305",
"%  c #000406",
"&  c #000507",
"*  c #090501",
"=  c #0E0B03",
"-  c #000509",
";  c #00080D",
":  c #000B0F",
">  c #100A02",
",  c #120B02",
"<  c #110D00",
"1  c #180E03",
"2  c #141000",
"3  c #151000",
"4  c #1A1400",
"5  c #000B12",
"6  c #000F15",
"7  c #251604",
"8  c #241C00",
"9  c #251D00",
"0  c #062031",
"q  c #052D39",
"w  c #51300A",
"e  c #55330A",
"r  c #594500",
"t  c #5C4800",
"y  c #B06915",
"u  c #D27D1A",
"i  c #D37E1A",
"p  c #B38C00",
"a  c #B48D00",
"s  c #EB8C1D",
"d  c #ED8D1D",
"f  c #F08F1D",
"g  c #F2901D",
"h  c #F3911E",
"j  c #F4911E",
"k  c #F5921E",
"l  c #F7931E",
"z  c #E3B200",
"x  c #E4B300",
"c  c #F2BE00",
"v  c #F3BE00",
"b  c #F4BF00",
"n  c #C39B37",
"m  c #C5923B",
"M  c #FEC700",
"N  c #0060A0",
"B  c #0063A4",
"V  c #0066AA",
"C  c #0069AF",
"Z  c #006AB0",
"A  c #006EB7",
"S  c #006EB8",
"D  c #0071BC",
"F  c #0172BC",
"G  c #0272BD",
"H  c #0073BE",
"J  c #0574BD",
"K  c #0674BE",
"L  c #0775BE",
"P  c #0875BE",
"I  c #0976BE",
"U  c #0087C1",
"Y  c #008AC6",
"T  c #0090CE",
"R  c #0094D4",
"E  c #009BDD",
"W  c #009DE0",
"Q  c #009EE3",
"!  c #009FE3",
"~  c #019FE3",
"^  c #08A2E4",
"/  c #09A2E4",
"(  c #EFF6FB",
")  c #F0F7FB",
"_  c #F2F8FC",
"`  c #F3FAFE",
"'  c #F4F9FC",
"]  c #F5F9FC",
"[  c #F7FBFD",
"{  c #F5FBFE",
"}  c #F8FBFD",
"|  c #FDFEFE",
" . c #FEFFFF",
".. c white",
/* pixels */
"                                  . . . . . . . . . . . . . . . . . . . . . . . . . . . . . .                                   ",
"                              . . . . . . . . . . . . . . . . . . . . . . . . . . . . . . . . . .                               ",
"                            . . 7 y d l l l l l l l l l l l l l l n M M M M M M M M M M M b a 9 . .                             ",
"                            . 7 d l l l l l l l l l l l l l l l m M M M M M M M M M M M M M M c 9 .                             ",
"                          . . y l l i e 1 > > > > > > > > > > > = < < < < < < < < < < 4 t x M M p . .                           ",
"                          . . d l i > . . . . . . . . . . . . . . . . . . . . . . . . . . 3 x M c . .                           ",
"                          . . l l w . 0 N C C C C C C C C C C C R R R R R R R R R R R U q . r M M . .                           ",
"                          . . l l > . B D D D D D D D D D D D D ! ! ! ! ! ! ! ! ! ! ! ^ Y . 3 M M . .                           ",
"                          . . > > . . A D D D D D D D D D D D D ! ! ! ! ! ! ! ! ! ! ! ! E . . < < . .                           ",
"                          . . . . . . A D D D D D D D D D D D D ! ! ! ! ! ! ! ! ! ! ! ! E . . . . . .                           ",
"                          . . C C % . A D D D D D D D D D D D D ! ! ! ! ! ! ! ! ! ! ! ! E . % R R . .                           ",
"                          . . D D % . A D D D D D D . . . . . . . . . . . . ! ! ! ! ! ! E . % ! ! . .                           ",
"                          . . D D % . A D D D D D D . . . . . . . . . . . . ! ! ! ! ! ! E . % ! ! . .                           ",
"                          . . D D Z C D D D D D D D . . M M M M M M M M . . ! ! ! ! ! ! E . % ! ! . .                           ",
"                          . . D D D D D D D D D D D . . M . . . . . . M . . ! ! ! ! ! ! E . % ! ! . .                           ",
"                          . . D D ( [ L D D D D D D . . M . . . . . . M . . ! ! ! ! ! ! E . - ^ ! . .                           ",
"                          . . D D } ..L D D D D D D . . M . . ..... . M . . ! ! ! ! ! ! E . % ! ! . .                           ",
"                          . . D D } ..L D D D D D D . . M . . ..... . M . . ! ! ! ! ! ! E . % ! ! . .                           ",
"                          . . D D } ..L D D D D D D . . M . . . . . . M . . ! ! ! ! ! ! E . - ^ ! . .                           ",
"                          . . D D } ..L D D D D D D . . M . . . . . . M . . ! ! ! ! ! ! E . % ! ! . .                           ",
"                          . . D D L L D D D D D D D . . M M M M M M M M . . ! ! ! ! ! ! E . % ! ! . .                           ",
"                          . . D D D D D D D D D D D . . . . . . . . . . . . ! ! ! ! ! ! E . % ^ ! . .                           ",
"                          . . D D - . S D D D D D D . . . . . . . . . . . . ! ! ! ! ! ! E . % ! ! . .                           ",
"                          . . D D % . A D D D D D D D D D D D D ! ! ! ! ! ! ! ! ! ! ! ! E . - ! ! . .                           ",
"                          . . D D % . A D D D D D D D D D D D D ! ! ! ! ! ! ! ! ! ! ! ! E . % ! ! . .                           ",
"                          . . D D % . A D D D D D D D D D D D D ! ! ! ! ! ! ! ! ! ! ! ! E . % ! ! . .                           ",
"                          . . D D % . A D D D D D D D D D D D D ! ! ! ! ! ! ! ! ! ! ! ! E . % ! ! . .                           ",
"                          . . D D % . A D D D D D D D D D D D D ! ! ! ! ! . . . . . . . . . - ^ ! . .                           ",
"                          . . D D % . A D D D D D D D D D D D D ! ! ! ! E . . . . . . . . . % ! ! . .                           ",
"                          . . D D . . A D D D D D D D D D D D D ! ! ! ! ! . @ l l l l l f . % ! ! . .                           ",
"                          . . D D % . A D D D D D D D D D D D D ! ! ! ! ! . . l . . . @ f . - ^ ! . .                           ",
"                          . . D D % . A D D D D D D D D D D D D ! ! ! ! E . @ h . . . @ f . % ! ! . .                           ",
"                          . . D D % . A D D D D D D D D D D D D ! ! ! ! ! . @ l f . @ l f . % ! ! . .                           ",
"                          . . D D % . A D D D D D D D D D D D D ! ! ! ! E . . l h . @ l f . % ! ! . .                           ",
"                          . . D D % . A D D D D D D D D D D D D ! ! ! ! ! . @ l f . @ l f . % ! ! . .                           ",
"                          . . D S % . A D D D D D D D D D D D D ! ! ! ! E . @ l h . @ l f . - ^ ! . .                           ",
"                          . . D D % . A D D D D D D D D D D D D ! ! ! ! ! . @ l h . @ l h . % ! ! . .                           ",
"                          . . D D % . A D D D D D D D D D D D D ! ! ! ! E . @ l h . @ l d . % ! ! . .                           ",
"                          . . D D % . A D D D D D D D D D D D D ! ! ! ! ! . . l . . . @ h . - ! ! . .                           ",
"                          . . D D % . A D D D D D D D D D D D D ! ! ! ! E . @ h . @ . * f . % ! ! . .                           ",
"                          . . D D - . S D D D D D D D D D D D D ! ! ! ! E . @ l l l l l h . % ! ! . .                           ",
"                          . . D D D D D D D D D D D D D D D D D ! ! ! ! ! . . . . . . . . . % ^ ! . .                           ",
"                          . . D D J J D D D D D D D D D D D D D ! ! ! ! ! . . . . . . . . . % ! ! . .                           ",
"                          . . D D } ..P D D D D D D D D D D D D ! ! ! ! ! ! ! ! ! ! ! ! E . - ! ! . .                           ",
"                          . . D D } ..L D D D D D D D D D D D D ! ! ! ! ! ! ! ! ! ! ! ! E . % ! ! . .                           ",
"                          . . D D } ..L D D D D D D D D D D D D ! ! ! ! ! ! ! ! ! ! ! ! E . % ! ! . .                           ",
"                          . . D D } ..L D D D D D D D D D D D D ! ! ! ! ! ! ! ! ! ! ! ! E . % ! ! . .                           ",
"                          . . D D ) } L D D D D D D D D D D D D ! ! ! ! ! ! ! ! ! ! ! ! E . - ^ ! . .                           ",
"                          . . D D D D D D D D D D D D P P D D P ^ ! ! ^ ^ ! ! ! ! ! ! ! E . % ! ! . .                           ",
"                          . . D D Z C D D D D D D D D ....D D ....! ! ....! ! ! ! ! ! ! E . % ! ! . .                           ",
"                          . . D D % . A D D D D D D D ....D D ....! ! ....! ! ! ! ! ! ! E . - ! ! . .                           ",
"                          . . D D % . A D D D D D D S ....D D ....! ! ....! ! ! ! ! ! ^ E . % ! ! . .                           ",
"                          . . D D % . A D D D D D D D ....D D ....Q Q ....! ! ! ! ! ! ! E . % ! ! . .                           ",
"                          . . D D % . A D D D D D D D _ [ D D ' [ Q Q [ ` ! ! ! ! ! ! ! E . % ^ ! . .                           ",
"                          . . D D % . A D D D D D D D D D D D D ! ! ^ ! ! ! ! ! ! ! ! ! E . % ! ! . .                           ",
"                          . . D D % . V C C C C Z C C C C C C C R R R R R R R R R R R R T . - ! ! . .                           ",
"                        . . . D D % . . . . . . . . . . . . . . . . . . . . . . . . . . . . % ^ ! . . .                         ",
"                        . . . D D 5 : ; ; : ; : : ; : : : : : : : : : : : : : : : : : : : : 6 ! ! . . .                         ",
"                        D D D D D D D D S D D D S D D D S D ! ! ! ! ! ! ! ! ! ! ! ! ! ! ! ! ! ! ! ! ! !                         ",
"                    . . . . . . . . . . . . . . . . . . . . . . . . . . . . . . . . . . . . . . . . . . . .                     ",
"                    . . . . . . . . . . . . . . . . . . . . . . . . . . . . . . . . . . . . . . . . . . . .                     ",
"                    . . l l l l l l l l l l l l l l l l l l l l M M M M M M M M M M M M M M M M M M M M . .                     ",
"                    . . . . . . . . . . . . . . . . . . . . . . . . . . . . . . . . . . . . . . . . . . . .                     ",
"                    . . . . . . . . . . . . . . . . . . . . . . . . . . . . . . . . . . . . . . . . . . . .                     "
};
